<svg fill="#696969" version="1.1" id="Capa_1" xmlns="http://www.w3.org/2000/svg" xmlns:xlink="http://www.w3.org/1999/xlink" viewBox="-42.62 -42.62 511.42 511.42" xml:space="preserve" stroke="#696969"><g id="SVGRepo_bgCarrier" stroke-width="0"></g><g id="SVGRepo_tracerCarrier" stroke-linecap="round" stroke-linejoin="round"></g><g id="SVGRepo_iconCarrier"> <g> <g> <path d="M34.933,324.631h356.34c5.062,0,9.907-2.018,13.492-5.597c3.567-3.579,5.585-8.442,5.585-13.493V51.014 c0-10.545-8.533-19.093-19.09-19.093H34.933c-5.074,0-9.929,2.018-13.496,5.591c-3.579,3.579-5.597,8.442-5.597,13.502v254.527 c0,5.267,2.141,10.047,5.597,13.493C24.881,322.493,29.664,324.631,34.933,324.631z"></path> <path d="M406.969,355.808H19.227C8.611,355.808,0,364.419,0,375.035s8.611,19.228,19.227,19.228h387.742 c10.604,0,19.215-8.611,19.215-19.228S417.573,355.808,406.969,355.808z"></path> </g> </g> </g></svg>
